<?xml version="1.0" standalone="no"?>
<!DOCTYPE svg PUBLIC "-//W3C//DTD SVG 20010904//EN"
 "http://www.w3.org/TR/2001/REC-SVG-20010904/DTD/svg10.dtd">
<svg version="1.0" xmlns="http://www.w3.org/2000/svg"
 width="552.000000pt" height="558.000000pt" viewBox="0 0 552.000000 558.000000"
 preserveAspectRatio="xMidYMid meet">

	<g transform="translate(0.000000,558.000000) scale(0.100000,-0.100000)"
	fill="#000000" stroke="none">
		<path d="M1 4378 c1 -662 3 -1192 6 -1178 174 1111 964 1987 2033 2256 651
163 1330 84 1927 -226 1119 -580 1695 -1860 1388 -3082 -70 -276 -200 -580
-345 -803 -104 -158 -91 -150 -159 -116 -105 53 -219 62 -323 25 -64 -22 -65
-17 -12 38 320 331 559 852 614 1336 19 160 8 559 -18 697 -96 499 -311 915
-655 1264 -593 601 -1451 842 -2277 640 -290 -72 -604 -220 -847 -401 -604
-450 -963 -1165 -963 -1918 0 -802 400 -1545 1073 -1993 120 -80 361 -201 502
-252 445 -163 938 -186 1419 -64 291 73 608 228 855 417 47 36 81 56 76 45
-69 -165 -70 -265 -4 -397 17 -32 29 -59 27 -61 -2 -1 -43 -29 -93 -62 -840
-558 -1905 -612 -2794 -142 -490 260 -897 673 -1147 1164 -127 249 -207 481
-259 759 l-23 121 -1 -1222 -1 -1223 2760 0 2760 0 0 2790 0 2790 -2760 0
-2760 0 1 -1202z m3103 857 c916 -141 1656 -791 1912 -1678 166 -578 102
-1208 -178 -1736 -198 -375 -468 -670 -815 -890 -763 -484 -1726 -491 -2498
-19 -827 507 -1256 1480 -1074 2438 147 771 667 1415 1393 1724 198 85 463
153 676 175 128 13 462 5 584 -14z m1684 -4255 c12 -12 22 -27 22 -34 0 -8
-48 -62 -107 -120 -98 -97 -110 -106 -145 -106 -37 0 -38 1 -38 36 0 33 10 46
106 140 58 57 113 104 123 104 9 0 27 -9 39 -20z"/>
		<path d="M2557 4133 c-23 -4 -26 -7 -16 -19 18 -22 -10 -27 -114 -21 -58 3
-122 -1 -172 -10 -101 -18 -185 -42 -185 -53 0 -10 25 -20 51 -20 10 0 19 -3
19 -7 0 -17 -56 -63 -76 -63 -31 0 -39 -17 -14 -32 24 -15 26 -43 3 -52 -9 -4
-35 -4 -59 0 -41 6 -42 6 -36 -21 3 -19 0 -30 -11 -37 -21 -11 -7 -51 30 -90
26 -27 26 -27 9 -65 -9 -21 -22 -47 -28 -57 -9 -16 -6 -23 16 -41 14 -11 28
-35 32 -52 4 -18 13 -38 20 -44 10 -8 12 -22 9 -43 -5 -25 0 -39 25 -71 48
-60 77 -124 101 -221 12 -49 23 -91 25 -92 1 -2 14 4 28 15 21 15 24 24 20 51
l-6 32 112 0 111 0 -3 28 -3 27 -100 5 -100 5 -3 35 c-2 21 2 38 11 45 9 7 13
30 13 75 -1 52 3 71 21 96 73 102 318 176 588 178 116 1 135 -2 180 -22 28
-13 68 -27 90 -31 33 -5 40 -11 43 -31 5 -52 24 -101 67 -177 49 -85 54 -111
29 -148 -16 -24 -21 -25 -120 -25 l-104 0 0 -30 0 -29 127 -3 127 -3 8 -44 c4
-24 9 -46 11 -48 3 -2 15 15 27 39 63 122 62 120 56 172 -18 158 -19 192 -2
224 10 20 24 32 36 32 11 0 20 1 20 3 0 1 -11 24 -25 51 -34 68 -33 86 6 86
l31 0 -23 19 c-20 16 -21 21 -10 35 12 14 11 19 -4 36 -10 11 -13 20 -7 20 22
0 12 39 -20 76 -40 45 -165 141 -239 182 -30 18 -80 36 -110 42 -30 6 -92 26
-139 45 -120 48 -255 65 -373 48z"/>
		<path d="M2730 3267 c0 -14 6 -30 13 -34 8 -5 18 -42 24 -88 9 -72 8 -81 -8
-92 -9 -7 -16 -21 -15 -30 2 -15 19 -19 99 -27 109 -9 146 -1 167 39 19 36 15
87 -9 106 -18 15 -19 21 -10 48 9 25 8 36 -5 56 -18 28 -17 28 -136 29 -47 1
-93 5 -102 10 -15 7 -18 4 -18 -17z m186 -72 c-22 -17 -72 -20 -80 -6 -8 13
12 19 59 20 37 0 39 -1 21 -14z m41 -111 c2 -6 -6 -13 -19 -16 -34 -6 -81 5
-86 20 -3 10 9 12 49 10 29 -2 54 -8 56 -14z"/>
		<path d="M2522 3128 c2 -86 7 -123 16 -126 9 -3 12 13 12 57 l0 61 65 0 65 0
0 -61 c0 -40 4 -59 11 -57 16 5 17 240 1 246 -8 2 -12 -12 -12 -47 l0 -51 -65
0 -65 0 0 50 c0 38 -4 50 -15 50 -13 0 -15 -18 -13 -122z"/>
		<path d="M1351 3144 c-22 -26 -41 -51 -41 -55 0 -20 30 -7 71 30 41 36 43 41
28 56 -15 15 -19 13 -58 -31z"/>
		<path d="M4305 3053 c-10 -135 -7 -244 7 -260 16 -20 40 -16 86 14 71 46 69
80 -3 45 -25 -12 -48 -22 -51 -22 -4 0 -5 73 -3 162 4 143 2 163 -12 166 -14
2 -17 -14 -24 -105z"/>
		<path d="M4486 3048 c-9 -142 -8 -226 5 -250 16 -29 53 -21 100 21 37 33 41
40 27 46 -11 4 -29 -1 -47 -14 -53 -38 -54 -35 -50 141 4 143 2 163 -12 166
-13 2 -17 -14 -23 -110z"/>
		<path d="M891 3106 c-6 -7 -8 -34 -5 -63 l6 -50 -38 -6 c-22 -4 -69 -7 -106
-7 l-67 0 -3 63 c-3 54 -5 62 -23 62 -17 0 -21 -8 -25 -60 -3 -33 -8 -65 -12
-71 -4 -7 -3 -36 2 -65 5 -30 12 -71 15 -91 4 -24 11 -38 20 -38 12 0 15 17
15 79 l0 80 78 1 c42 1 91 2 107 3 30 2 30 1 27 -43 -5 -72 7 -150 24 -150 8
0 14 1 14 3 1 1 3 40 6 87 3 47 7 91 9 97 2 7 25 18 50 24 28 7 45 17 45 27 0
12 -9 14 -45 9 l-45 -7 0 59 c0 50 -3 59 -20 64 -10 3 -24 -1 -29 -7z"/>
		<path d="M3650 3105 c-16 -19 -3 -35 31 -39 14 -1 30 -5 36 -9 16 -10 23 -86
10 -114 -8 -17 -7 -27 1 -35 7 -7 12 -38 12 -69 0 -69 8 -74 94 -59 98 18 165
40 193 64 50 43 5 78 -119 91 -38 3 -68 10 -68 14 0 4 22 15 49 25 87 31 103
72 38 99 -25 11 -226 47 -260 47 -3 0 -10 -7 -17 -15z m210 -56 c27 -6 50 -14
50 -18 0 -7 -107 -51 -124 -51 -3 0 -6 18 -6 40 0 45 2 46 80 29z m124 -169
c8 -8 7 -13 -4 -20 -23 -15 -111 -38 -155 -42 l-40 -3 -3 44 -3 44 97 -6 c53
-3 102 -11 108 -17z"/>
		<path d="M1100 3067 c-29 -14 -63 -106 -74 -200 -6 -48 -5 -58 13 -76 12 -12
25 -21 30 -21 4 0 32 25 61 56 29 30 53 54 55 52 2 -2 6 -23 9 -47 7 -50 21
-64 48 -50 22 12 22 18 2 40 -14 15 -14 29 -5 106 15 125 18 116 -47 136 -69
20 -61 20 -92 4z m85 -51 c19 -13 19 -16 3 -48 -19 -38 -105 -138 -119 -138
-17 0 19 158 42 186 15 18 50 18 74 0z"/>
		<path d="M4128 3020 c-42 -47 -46 -55 -52 -121 -7 -82 5 -117 46 -137 35 -16
71 -7 108 28 30 28 40 60 19 60 -6 0 -26 -12 -45 -27 -29 -22 -40 -25 -62 -17
-55 19 -41 81 23 108 89 36 106 156 22 156 -8 0 -35 -23 -59 -50z m72 -14 c0
-19 -44 -50 -48 -36 -4 12 26 50 40 50 4 0 8 -6 8 -14z"/>
		<path d="M4724 3034 c-27 -13 -36 -27 -55 -87 -53 -162 -10 -229 102 -158 59
37 83 86 76 154 -3 41 -11 56 -36 79 -36 32 -44 33 -87 12z m70 -56 c17 -23
20 -66 10 -106 -8 -26 -87 -77 -109 -68 -42 16 27 193 77 196 4 0 14 -10 22
-22z"/>
		<path d="M1336 3028 c-10 -31 -14 -202 -6 -224 6 -15 17 -24 32 -24 26 0 95
45 109 72 16 31 -16 33 -54 4 -61 -46 -65 -37 -43 89 14 79 12 95 -15 95 -11
0 -21 -6 -23 -12z"/>
		<path d="M1516 3032 c-3 -4 -2 -66 1 -136 6 -122 7 -127 27 -124 14 2 20 9 19
23 -8 66 48 160 118 195 45 24 50 40 12 40 -27 0 -85 -37 -115 -74 -19 -24
-25 -15 -30 43 -3 33 -20 51 -32 33z"/>
		<path d="M2226 2920 c-3 -8 -9 -55 -14 -103 -6 -65 -5 -90 4 -98 9 -7 6 -26
-12 -77 -27 -73 -25 -105 7 -147 15 -19 19 -33 14 -56 -5 -20 -2 -36 7 -47 22
-27 43 -112 40 -170 -1 -35 4 -65 16 -85 9 -18 19 -50 22 -72 4 -35 9 -40 33
-43 17 -2 27 -9 27 -20 0 -9 11 -40 24 -69 28 -60 57 -79 137 -89 37 -5 61
-14 75 -30 12 -12 39 -27 61 -33 21 -6 47 -17 58 -25 14 -10 24 -11 32 -4 9 7
23 7 44 -1 41 -14 145 -13 188 2 20 7 41 24 51 42 11 20 33 36 70 50 34 13 56
28 61 43 5 12 14 22 22 22 26 0 57 47 68 103 12 56 24 68 47 45 22 -22 26 2 9
56 -23 71 -22 96 9 223 25 103 26 112 13 191 -12 79 -11 86 9 134 15 36 19 56
12 68 -5 10 -13 50 -16 89 -7 73 -25 114 -42 96 -5 -5 -19 -43 -31 -84 -19
-62 -31 -82 -72 -122 -27 -26 -49 -52 -49 -58 0 -19 -18 -12 -68 23 -53 39
-169 96 -192 96 -8 0 -33 -12 -55 -25 -49 -30 -88 -31 -150 -4 -77 34 -159 5
-256 -88 -56 -54 -76 -52 -107 10 -30 61 -72 186 -72 216 0 14 -4 33 -10 41
-8 13 -10 13 -14 0z m605 -319 c41 -10 106 -21 144 -24 88 -7 135 -17 135 -29
0 -5 -17 -16 -37 -25 -35 -14 -47 -14 -148 1 -143 21 -186 20 -297 -5 -55 -12
-107 -18 -128 -14 -38 7 -77 31 -67 41 4 4 13 2 21 -5 11 -9 41 -3 143 32 70
25 135 45 144 46 9 1 49 -8 90 -18z"/>
		<path d="M4732 967 c-17 -20 23 -56 41 -38 8 8 9 16 1 28 -14 23 -29 26 -42
10z"/>
		<path d="M4622 857 c-71 -72 -91 -113 -54 -114 9 0 52 33 94 75 73 71 77 77
61 94 -9 10 -19 18 -22 18 -4 0 -39 -33 -79 -73z"/>
	</g>
</svg>
